<?xml version="1.0" encoding="UTF-8"?>
<!DOCTYPE svg PUBLIC "-//W3C//DTD SVG 1.1//EN" "http://www.w3.org/Graphics/SVG/1.1/DTD/svg11.dtd">
<!-- Creator: CorelDRAW 2018 (64 Bit) -->
<svg xmlns="http://www.w3.org/2000/svg" xml:space="preserve" width="18.7255mm" height="18.7254mm" version="1.1" style="shape-rendering:geometricPrecision; text-rendering:geometricPrecision; image-rendering:optimizeQuality; fill-rule:evenodd; clip-rule:evenodd"
viewBox="0 0 802.82 802.82"
 xmlns:xlink="http://www.w3.org/1999/xlink">
 <defs>
  <style type="text/css">
   <![CDATA[
    .fil0 {fill:#003399}
   ]]>
  </style>
 </defs>
 <g id="Capa_x0020_1">
  <metadata id="CorelCorpID_0Corel-Layer"/>
  <path class="fil0" d="M401.41 0c221.7,0 401.41,179.71 401.41,401.41 0,221.7 -179.71,401.41 -401.41,401.41 -221.7,0 -401.41,-179.71 -401.41,-401.41 0,-221.7 179.71,-401.41 401.41,-401.41zm195.6 265.95l-26.38 23.4c-2.05,2.16 -1.52,2.04 -3.79,3.43 2.81,1.96 15.43,2.86 18.3,16.97 1.33,6.53 0.43,158.94 0.43,177.74 0,13.32 1.89,33 -17.32,35.71 -4.85,0.68 -12.76,0.23 -17.96,0.23 -95.44,0 -190.86,0 -286.29,0 -21.75,0 -46.53,5.48 -46.47,-24.09l0 -178.36c-0.01,-32.09 17.72,-27.87 43.83,-27.87 16.27,0 174.52,0.69 178.91,-0.04 1.88,-0.31 7.18,-6.5 9.02,-8.58l25.12 -28.45 -211.73 -0c-12.89,0 -28.32,-1.1 -40.37,2.19 -20.11,5.48 -36.67,22.95 -40.91,44.71 -2.01,10.28 -0.99,68.92 -0.99,83.85 0,16.21 -1.08,114.65 0.84,126.15 3.51,20.97 19.34,39.21 40.35,45.22 12.55,3.59 27.11,2.39 40.42,2.39l297.48 0c14.19,0.01 24.11,-1.53 34.8,-7.96 21.88,-13.17 28.39,-31.62 28.38,-56.53l0 -170.46c0,-15.2 0.48,-24.04 -5.8,-36.96 -4.75,-9.79 -12.02,-17.78 -19.87,-22.68zm-52.7 -54.22c1.7,3.31 33.57,33.75 37.5,38.08 2.33,-0.99 11.94,-10.54 15.17,-13.11l21.99 -20.12c2.56,-3.37 1.07,-8.53 -0.36,-11.94 -3.41,-8.09 -28.18,-35.94 -39.86,-30.29 -1.17,0.56 -6.26,5.79 -7.35,7.15l-20.26 22.53c-2.35,2.99 -4.59,4.47 -6.83,7.7zm-201.51 236.31c26.56,-1.28 54.58,-4.8 73.01,-17.99 20.29,-14.52 29.09,-41.57 9.05,-59.32 -9.48,-8.39 -19.26,-12.94 -33.4,-11.16 -35.07,4.41 -37.79,44.38 -43.38,70.53 -1.47,6.86 -3.83,12.14 -5.28,17.95zm233.95 -192.72c-2,-3.55 -31.4,-31.3 -37.48,-38.02 -2.68,2.55 -5.36,5.58 -7.79,8.54l-15.75 17.14c-1.55,1.45 -2.23,2.62 -3.64,4.28l-7.83 8.62c-4.2,3.95 -3.51,4.24 -7.96,8.47l-27.49 30.44c-1.54,1.95 -1.77,2.26 -3.79,4.11l-7.86 8.58c-1.57,1.8 -2.23,3.04 -3.95,4.62l-11.5 12.86c-10.41,12.18 -25.12,19.26 -8.73,35.7 2.53,2.55 4.85,5.5 9.46,7.04 7.44,2.47 12.01,-1.17 16.69,-6.24l82.68 -74.64c1.71,-1.6 2.11,-2.43 3.96,-3.92 1.94,-1.56 2.82,-2.08 4.56,-4l17.24 -15.67c3.37,-2.64 5.72,-5.98 9.21,-7.89zm-380.4 336.55c-18.4,2.8 -21.24,26.77 -6.31,34.75 7.64,4.09 45.99,2.15 57.49,2.15 18.72,0 352.94,0.75 359.55,-0.18 17.56,-2.5 21.42,-26.46 5.94,-34.72 -7.73,-4.12 -45.89,-2.16 -57.48,-2.16 -18.27,0 -353.16,-0.75 -359.19,0.17z"/>
 </g>
</svg>
