<?xml version="1.0" encoding="UTF-8"?>
<!DOCTYPE svg PUBLIC "-//W3C//DTD SVG 1.1//EN" "http://www.w3.org/Graphics/SVG/1.1/DTD/svg11.dtd">
<!-- Creator: CorelDRAW 2018 (64 Bit) -->
<svg xmlns="http://www.w3.org/2000/svg" xml:space="preserve" width="18.7254mm" height="18.7254mm" version="1.1" style="shape-rendering:geometricPrecision; text-rendering:geometricPrecision; image-rendering:optimizeQuality; fill-rule:evenodd; clip-rule:evenodd"
viewBox="0 0 267.69 267.69"
 xmlns:xlink="http://www.w3.org/1999/xlink">
 <defs>
  <style type="text/css">
   <![CDATA[
    .fil0 {fill:#003399}
   ]]>
  </style>
 </defs>
 <g id="Capa_x0020_1">
  <metadata id="CorelCorpID_0Corel-Layer"/>
  <path class="fil0" d="M133.84 0c73.92,0 133.84,59.92 133.84,133.84 0,73.92 -59.92,133.84 -133.84,133.84 -73.92,0 -133.84,-59.92 -133.84,-133.84 0,-73.92 59.92,-133.84 133.84,-133.84zm-68.56 169.01c-0.13,0.64 -0.21,1.73 -0.29,2.39l-1.87 15.9c-0.2,1.47 0.31,1.48 2.28,3.45l10.23 10.24c0.41,0.29 4.23,-0.3 4.79,-0.36l12.23 -1.44c0.65,-0.07 1.8,-0.16 2.45,-0.32l14.24 -37.62 -2.12 -2.17 -19.5 19.5c0.26,1.29 0.93,1.71 0.68,3.93 -0.52,4.65 -6.59,7.34 -10.34,3.6 -4.62,-4.6 0.51,-12.25 6.48,-10.01l1.04 0.34 19.51 -19.5 -2.18 -2.18 -37.63 14.25zm75.28 -88.71c24.87,0 45.03,20.16 45.03,45.03 0,24.87 -20.16,45.03 -45.03,45.03 -24.87,0 -45.03,-20.16 -45.03,-45.03 0,-24.87 20.16,-45.03 45.03,-45.03zm-50.84 39.87l0 0c0,1.35 -1.1,2.45 -2.45,2.45l-13.23 0c-1.35,0 -2.45,-1.1 -2.45,-2.45l0 -0c0,-1.35 1.1,-2.45 2.45,-2.45l13.23 0c1.35,0 2.45,1.1 2.45,2.45zm94.32 33.34l0 -0c0.9,-1 2.46,-1.09 3.46,-0.19l9.87 8.81c1.01,0.9 1.09,2.46 0.19,3.46l0 0c-0.9,1.01 -2.46,1.1 -3.46,0.2l-9.86 -8.81c-1.01,-0.9 -1.1,-2.46 -0.2,-3.46zm29.28 -33.34l0 0c0,1.35 -1.1,2.45 -2.45,2.45l-13.23 0c-1.35,0 -2.45,-1.1 -2.45,-2.45l0 -0c0,-1.35 1.1,-2.45 2.45,-2.45l13.23 0c1.35,0 2.45,1.1 2.45,2.45zm-35.64 -29.68l0 0c0.9,1.01 2.46,1.1 3.46,0.2l9.87 -8.81c1,-0.9 1.09,-2.45 0.19,-3.46l0 -0c-0.9,-1.01 -2.46,-1.1 -3.46,-0.2l-9.86 8.81c-1.01,0.9 -1.09,2.46 -0.2,3.46zm-37.12 -32.6l0 0c1.35,0 2.45,1.1 2.45,2.45l0 13.23c0,1.35 -1.1,2.45 -2.45,2.45l-0 0c-1.35,0 -2.45,-1.1 -2.45,-2.45l0 -13.23c0,-1.35 1.1,-2.45 2.45,-2.45zm-37.26 29.41l0 0c-0.9,1 -2.46,1.09 -3.46,0.19l-9.87 -8.81c-1,-0.9 -1.09,-2.46 -0.19,-3.46l0 0c0.9,-1.01 2.46,-1.1 3.46,-0.2l9.86 8.81c1,0.9 1.09,2.46 0.19,3.46zm20.67 86.22l33.18 0c1.9,0 3.45,1.55 3.45,3.45l0 3.14c0,1.9 -1.56,3.45 -3.45,3.45l-33.18 0c-1.9,0 -3.45,-1.55 -3.45,-3.45l0 -3.14c0,-1.9 1.55,-3.45 3.45,-3.45zm8.85 24.13l15.47 0c1.69,0 3.08,1.38 3.08,3.08l0 2.8c0,1.69 -1.38,3.07 -3.08,3.07l-15.47 0c-1.69,0 -3.07,-1.38 -3.07,-3.07l0 -2.8c0,-1.69 1.38,-3.08 3.07,-3.08zm-4.78 -11.26l25.03 0c1.69,0 3.08,1.38 3.08,3.07l0 2.8c0,1.69 -1.38,3.08 -3.08,3.08l-25.03 0c-1.69,0 -3.07,-1.38 -3.07,-3.08l0 -2.8c0,-1.69 1.38,-3.07 3.07,-3.07zm12.51 -98.98c20.94,0 37.92,16.98 37.92,37.92 0,20.94 -16.98,37.92 -37.92,37.92 -20.94,0 -37.92,-16.98 -37.92,-37.92 0,-20.94 16.98,-37.92 37.92,-37.92zm-86.2 109.62l12.78 12.79 4.34 -4.33 -12.85 -12.76 -4.28 4.3z"/>
 </g>
</svg>
