<?xml version="1.0" encoding="UTF-8"?>
<!DOCTYPE svg PUBLIC "-//W3C//DTD SVG 1.1//EN" "http://www.w3.org/Graphics/SVG/1.1/DTD/svg11.dtd">
<!-- Creator: CorelDRAW 2018 (64 Bit) -->
<svg xmlns="http://www.w3.org/2000/svg" xml:space="preserve" width="18.7254mm" height="18.7254mm" version="1.1" style="shape-rendering:geometricPrecision; text-rendering:geometricPrecision; image-rendering:optimizeQuality; fill-rule:evenodd; clip-rule:evenodd"
viewBox="0 0 401.5 401.5"
 xmlns:xlink="http://www.w3.org/1999/xlink">
 <defs>
  <style type="text/css">
   <![CDATA[
    .fil0 {fill:#003399}
   ]]>
  </style>
 </defs>
 <g id="Capa_x0020_1">
  <metadata id="CorelCorpID_0Corel-Layer"/>
  <path class="fil0" d="M200.75 0c110.87,0 200.75,89.88 200.75,200.75 0,110.87 -89.88,200.75 -200.75,200.75 -110.87,0 -200.75,-89.88 -200.75,-200.75 0,-110.87 89.88,-200.75 200.75,-200.75zm-75.03 188.95c0.05,33.34 -0.01,66.69 0,100.03 0.01,26.89 -2.64,25.63 24.39,25.64l100.66 0c26.78,0.02 25.03,1.8 25.01,-25.01 -0.02,-33.55 0,-67.1 0,-100.65 10.91,0 16.54,-1.98 23.23,-7.39 14.74,-11.92 11.17,-31.22 11.16,-50.13 -0,-10.41 1.01,-18.44 -3.45,-27.17 -9.95,-19.44 -27,-17.23 -44.07,-17.23l-123.16 0c-9.24,-0 -20.43,-1.06 -28.46,2.18 -7.47,3.02 -12.75,8.19 -16.06,14.6 -4.59,8.9 -3.64,16.36 -3.63,26.98 0.01,18.46 -3.59,38.81 10.77,50.51 6.8,5.55 12.32,7.64 23.62,7.64zm70.02 -6.88l-0.06 7.5c-6.91,2.65 -14.02,2.54 -22.56,11.13 -3.68,3.7 -7.53,10.18 -9.34,15.69 -0.69,2.1 -0.81,4.67 -1.79,6.76l-10.64 0.17 0 10.02 10.64 0.1c2.02,4.46 2.71,20.13 20.92,29.63 4.23,2.2 7.65,3.34 12.77,4.09l0.06 10.58 10.01 -0.01 0.02 -10.57c17.93,-2.61 31.1,-15.89 33.88,-33.68l10.49 -0.14 0 -10.01 -10.5 -0.1c-2.09,-13.43 -10.13,-23.97 -21.09,-29.57 -4.7,-2.4 -8.16,-2.32 -12.61,-4.08l-0.22 -10.64 -10 0 0 3.13zm10.02 53.14l0.05 21.81c12.03,-1.73 21.99,-11.57 23.7,-23.67l-23.75 -0.01 0 1.87zm-0.01 -31.26l0.01 5 0 14.38 3.74 -0.01 6.25 0.01 13.75 -0.01c-1.8,-12.11 -11.58,-21.4 -23.75,-23.39l-0.01 4.02zm-10.08 53.07l0.07 -23.68 -23.32 0c1.99,12.24 11.15,21.64 23.25,23.67zm-23.27 -33.69l23.33 0 0.01 -23.41c-12.03,2.16 -21.14,11.36 -23.34,23.41zm98.06 -112.57c-13.48,4.26 -6.41,22.34 5.3,18.8 12.57,-3.8 6.88,-22.65 -5.3,-18.8zm-128.47 50.69l0 136.91 117.52 -0 0 -139.39 -117.52 -0.01 0 2.49z"/>
 </g>
</svg>
