<?xml version="1.0" encoding="UTF-8"?>
<!DOCTYPE svg PUBLIC "-//W3C//DTD SVG 1.1//EN" "http://www.w3.org/Graphics/SVG/1.1/DTD/svg11.dtd">
<!-- Creator: CorelDRAW 2018 (64 Bit) -->
<svg xmlns="http://www.w3.org/2000/svg" xml:space="preserve" width="18.7255mm" height="18.7254mm" version="1.1" style="shape-rendering:geometricPrecision; text-rendering:geometricPrecision; image-rendering:optimizeQuality; fill-rule:evenodd; clip-rule:evenodd"
viewBox="0 0 1669735 1669726.08"
 xmlns:xlink="http://www.w3.org/1999/xlink">
 <defs>
  <style type="text/css">
   <![CDATA[
    .fil0 {fill:#003399}
   ]]>
  </style>
 </defs>
 <g id="Capa_x0020_1">
  <metadata id="CorelCorpID_0Corel-Layer"/>
  <path class="fil0" d="M834871.96 0c461093.15,0 834863.04,373769.9 834863.04,834863.04 0,461093.15 -373769.9,834863.04 -834863.04,834863.04 -461093.15,0 -834863.04,-373769.9 -834863.04,-834863.04 0,-461093.15 373769.9,-834863.04 834863.04,-834863.04zm-407297.46 361045.47l814594.92 0c76756.72,0 139549.56,62792.84 139549.56,139540.64l0 668553.85c0,76756.72 -62792.84,139549.56 -139549.56,139549.56l-814594.92 0c-76756.72,0 -139549.56,-62792.84 -139549.56,-139549.56l0 -668553.85c0,-76747.8 62792.84,-139540.64 139549.56,-139540.64zm24334.23 297343.11l331049.01 0c9701.59,0 17637.64,7944.96 17637.64,17646.55l0 293312.67c0,9701.59 -7936.05,17637.64 -17637.64,17637.64l-331049.01 0c-9701.59,0 -17637.64,-7936.05 -17637.64,-17637.64l0 -293312.67c0,-9701.59 7936.05,-17646.55 17637.64,-17646.55zm403623.69 0l360706.63 0c10575.45,0 19233.76,8667.23 19233.76,19251.6l0 182199.12c0,10584.37 -8658.31,19242.68 -19233.76,19242.68l-360706.63 0c-10575.45,0 -19242.68,-8658.31 -19242.68,-19242.68l0 -182199.12c0,-10584.37 8667.23,-19251.6 19242.68,-19251.6zm-400921.87 361464.57l325645.36 0c11181.8,0 20339.46,9148.74 20339.46,20339.46l0 109606.59c0,11190.72 -9157.66,20348.38 -20339.46,20348.38l-325645.36 0c-11181.8,0 -20339.46,-9157.66 -20339.46,-20348.38l0 -109606.59c0,-11190.72 9157.66,-20339.46 20339.46,-20339.46zm399923.18 -105486.98l146469.08 0c10031.52,0 18235.07,8203.55 18235.07,18235.07l0 219302.36c0,10031.52 -8203.55,18243.99 -18235.07,18243.99l-146469.08 0c-10031.52,0 -18243.99,-8212.47 -18243.99,-18243.99l0 -219302.36c0,-10031.52 8212.47,-18235.07 18243.99,-18235.07zm216234.94 0l146469.08 0c10031.52,0 18235.07,8203.55 18235.07,18235.07l0 219302.36c0,10031.52 -8203.55,18243.99 -18235.07,18243.99l-146469.08 0c-10031.52,0 -18235.07,-8212.47 -18235.07,-18243.99l0 -219302.36c0,-10031.52 8203.55,-18235.07 18235.07,-18235.07zm148270.29 -477063.32l35694.37 0c11609.81,0 21097.4,9496.5 21097.4,21097.4l0 37727.42c0,11600.89 -9487.59,21097.4 -21097.4,21097.4l-35694.37 0c-11609.81,0 -21097.4,-9496.5 -21097.4,-21097.4l0 -37727.42c0,-11600.89 9487.59,-21097.4 21097.4,-21097.4zm-147672.86 0l35703.29 0c11609.81,0 21097.4,9496.5 21097.4,21097.4l0 37727.42c0,11600.89 -9487.59,21097.4 -21097.4,21097.4l-35703.29 0c-11591.98,0 -21088.48,-9496.5 -21088.48,-21097.4l0 -37727.42c0,-11600.89 9496.5,-21097.4 21088.48,-21097.4zm-142795.31 0l35703.29 0c11609.81,0 21097.4,9496.5 21097.4,21097.4l0 37727.42c0,11600.89 -9487.59,21097.4 -21097.4,21097.4l-35703.29 0c-11600.89,0 -21097.4,-9496.5 -21097.4,-21097.4l0 -37727.42c0,-11600.89 9496.5,-21097.4 21097.4,-21097.4zm-569148.2 147663.94l950898.72 0 0 595533.32c0,33919.91 -27740.49,61660.4 -61660.4,61660.4l-827577.93 0c-33919.91,0 -61660.4,-27740.49 -61660.4,-61660.4l0 -595533.32z"/>
 </g>
</svg>
